<?xml version="1.0" encoding="utf-8"?>
<!-- Uploaded to: SVG Repo, www.svgrepo.com, Generator: SVG Repo Mixer Tools -->
<svg width="800px" height="800px" viewBox="0 0 1024 1024" class="icon"  version="1.1" xmlns="http://www.w3.org/2000/svg"><path d="M960 160H384V64a32 32 0 0 0-32-32H136.96A104.96 104.96 0 0 0 32 136.96v558.08A104.96 104.96 0 0 0 136.96 800h128a256 256 0 0 0 495.04 0h128A104.96 104.96 0 0 0 992 695.04V192a32 32 0 0 0-32-32zM512 928a192 192 0 1 1 192-192 192 192 0 0 1-192 192z m416-608H576a32 32 0 0 0 0 64h352v311.04A40.96 40.96 0 0 1 887.04 736H768a256 256 0 0 0-512 0H136.96A40.96 40.96 0 0 1 96 695.04V136.96A40.96 40.96 0 0 1 136.96 96H320v96a32 32 0 0 0 32 32h576z" fill="#231815" /><path d="M288 352a32 32 0 0 0 32 32h128a32 32 0 0 0 0-64h-128a32 32 0 0 0-32 32zM209.6 325.44a17.6 17.6 0 0 0-5.44-2.88 19.84 19.84 0 0 0-6.08-2.56 27.84 27.84 0 0 0-12.48 0 20.8 20.8 0 0 0-5.76 1.92 23.68 23.68 0 0 0-5.76 2.88l-4.8 3.84A32 32 0 0 0 160 352a32 32 0 0 0 9.28 22.72 36.8 36.8 0 0 0 10.56 6.72 30.08 30.08 0 0 0 24.32 0 37.12 37.12 0 0 0 10.56-6.72A32 32 0 0 0 224 352a33.6 33.6 0 0 0-9.28-22.72zM608 704h-64v-96a32 32 0 0 0-64 0v128a32 32 0 0 0 32 32h96a32 32 0 0 0 0-64z" fill="#231815" /></svg>